<?xml version="1.0" standalone="no"?>
<!DOCTYPE svg PUBLIC "-//W3C//DTD SVG 20010904//EN"
 "http://www.w3.org/TR/2001/REC-SVG-20010904/DTD/svg10.dtd">
<svg version="1.0" xmlns="http://www.w3.org/2000/svg"
 width="70.000000pt" height="70.000000pt" viewBox="0 0 70.000000 70.000000"
 preserveAspectRatio="xMidYMid meet">
<metadata>
Created by potrace 1.14, written by Peter Selinger 2001-2017
</metadata>
<g transform="translate(0.000000,70.000000) scale(0.100000,-0.100000)"
fill="#000000" stroke="none">
<path d="M266 668 c-13 -19 -16 -58 -16 -226 0 -203 0 -204 -25 -234 -28 -33
-34 -93 -13 -131 54 -103 206 -75 224 42 5 30 -28 111 -45 111 -5 0 -8 89 -7
198 2 244 -2 262 -71 262 -22 0 -37 -7 -47 -22z m64 -9 c0 -6 -6 -9 -14 -6 -7
3 -19 0 -25 -6 -8 -8 -11 -8 -11 0 0 12 16 21 38 22 6 1 12 -4 12 -10z m30
-223 c0 -182 2 -215 16 -227 52 -43 48 -125 -8 -159 -42 -25 -86 -18 -122 21
-24 27 -27 38 -23 71 3 22 14 47 25 56 11 10 21 26 24 37 2 13 6 16 11 9 4 -7
-7 -29 -23 -49 -36 -45 -38 -84 -7 -120 44 -51 129 -32 147 34 10 36 -6 82
-35 98 -12 7 -15 48 -17 230 -2 121 0 219 5 216 4 -2 7 -100 7 -217z m-77 175
c2 -10 1 -24 -3 -30 -4 -7 -7 1 -8 18 -1 35 3 40 11 12z m45 -198 c-1 -155 3
-218 11 -221 40 -13 54 -71 24 -104 -19 -21 -75 -24 -91 -5 -6 6 -13 24 -17
39 -5 21 -1 33 23 57 l29 31 1 198 c0 232 0 222 11 222 5 0 9 -97 9 -217z
m-43 108 c3 -5 2 -12 -3 -15 -5 -3 -9 1 -9 9 0 17 3 19 12 6z m-2 -56 c-7 -21
-12 -19 -10 4 0 11 5 18 9 15 4 -3 5 -11 1 -19z m1 -55 c-6 -6 -10 -3 -10 10
0 13 4 16 10 10 7 -7 7 -13 0 -20z m0 -46 c-4 -37 -11 -39 -12 -4 0 16 3 30 7
30 5 0 7 -12 5 -26z m1 -83 c3 -5 2 -12 -3 -15 -5 -3 -9 1 -9 9 0 17 3 19 12
6z"/>
<path d="M288 160 c-20 -15 -21 -21 -10 -44 22 -49 91 -25 78 28 -8 31 -40 39
-68 16z m47 -30 c0 -22 -29 -18 -33 3 -3 14 1 18 15 15 10 -2 18 -10 18 -18z"/>
<path d="M165 571 c-3 -5 3 -11 12 -13 25 -5 63 3 63 13 0 12 -67 12 -75 0z"/>
<path d="M425 546 c-16 -12 -19 -28 -20 -115 -1 -87 1 -103 17 -118 32 -29
108 -22 130 11 4 6 8 53 8 104 0 79 -3 95 -20 112 -24 24 -87 27 -115 6z m103
-21 c3 -3 6 -23 7 -45 l2 -40 -54 0 -53 0 0 40 c0 33 4 42 23 50 22 8 64 6 75
-5z m-34 -117 c-3 -5 -9 -6 -13 -4 -4 3 -13 1 -19 -3 -10 -6 -10 -13 -1 -34 7
-15 16 -27 20 -27 12 0 29 35 29 59 0 13 5 18 13 15 16 -6 16 -69 1 -84 -6 -6
-29 -10 -50 -8 -39 3 -39 4 -42 48 l-3 45 35 0 c19 0 32 -3 30 -7z"/>
<path d="M460 491 c-16 -32 -12 -41 20 -41 17 0 30 5 30 11 0 16 -20 49 -30
49 -5 0 -14 -9 -20 -19z"/>
<path d="M155 530 c-8 -13 15 -24 27 -12 6 6 4 11 -6 15 -8 3 -18 2 -21 -3z"/>
<path d="M200 525 c0 -8 6 -15 14 -15 22 0 28 17 10 24 -22 9 -24 8 -24 -9z"/>
<path d="M165 480 c3 -5 22 -10 41 -10 19 0 34 5 34 10 0 6 -18 10 -41 10 -24
0 -38 -4 -34 -10z"/>
<path d="M200 442 c0 -14 11 -21 26 -15 21 8 17 23 -6 23 -11 0 -20 -4 -20 -8z"/>
<path d="M175 400 c-18 -7 -18 -9 -3 -15 21 -9 63 -3 63 9 0 12 -36 16 -60 6z"/>
<path d="M200 350 c0 -5 9 -10 20 -10 11 0 20 5 20 10 0 6 -9 10 -20 10 -11 0
-20 -4 -20 -10z"/>
<path d="M165 310 c-3 -5 0 -10 7 -11 7 -1 25 -2 41 -3 17 -2 27 2 27 11 0 15
-65 18 -75 3z"/>
</g>
</svg>
